<svg width="32" height="32" viewBox="0 0 32 32" fill="none" xmlns="http://www.w3.org/2000/svg">
<path d="M12.4893 25.4399L3.12263 13.3866H8.23729L12.4893 25.4399ZM20.472 13.3866L15.992 27.9812L10.8266 13.3852L20.472 13.3866ZM28.8453 13.3866L19.2333 25.7492L23.0453 13.3852L28.8453 13.3866ZM29.3333 10.9412H23.0613L21.1546 4.01855H24.6906C24.7613 4.03387 24.8281 4.0634 24.887 4.10534C24.9459 4.14729 24.9957 4.20078 25.0333 4.26255L29.3333 10.9412ZM20.5373 10.9412H10.844L13.288 4.03455H18.6146L20.5373 10.9412ZM10.6813 4.05189L8.25463 10.9412H2.66663L6.83729 4.42655L6.96663 4.27989C7.02585 4.21129 7.09844 4.15549 7.17996 4.11589C7.25464 4.09965 7.33194 4.09965 7.40663 4.11589L10.6813 4.05189Z" fill="#666666"/>
</svg>
