<svg width="32" height="32" viewBox="0 0 32 32" fill="none" xmlns="http://www.w3.org/2000/svg">
<path d="M15.9999 13.3337L10.6666 5.86699L12.7999 2.66699H19.1999L21.3333 5.86699L15.9999 13.3337ZM20.6666 9.06699L19.0666 11.3337C21.9999 12.5337 23.9999 15.3337 23.9999 18.667C23.9999 20.7887 23.1571 22.8236 21.6568 24.3238C20.1565 25.8241 18.1217 26.667 15.9999 26.667C13.8782 26.667 11.8434 25.8241 10.3431 24.3238C8.84277 22.8236 7.99992 20.7887 7.99992 18.667C7.99992 15.3337 9.99992 12.5337 12.9333 11.3337L11.3333 9.06699C7.73325 10.8003 5.33325 14.4003 5.33325 18.667C5.33325 21.496 6.45706 24.2091 8.45745 26.2095C10.4578 28.2099 13.1709 29.3337 15.9999 29.3337C18.8289 29.3337 21.542 28.2099 23.5424 26.2095C25.5428 24.2091 26.6666 21.496 26.6666 18.667C26.6666 14.4003 24.2666 10.8003 20.6666 9.06699Z" fill="black" fill-opacity="0.6"/>
</svg>
