<svg width="28" height="28" viewBox="0 0 28 28" fill="none" xmlns="http://www.w3.org/2000/svg">
<path fill-rule="evenodd" clip-rule="evenodd" d="M7.40027 4.30053C7.95647 3.74341 8.58093 3.2589 9.25877 2.85853C10.6956 2.01254 12.3327 1.56641 14.0001 1.56641C15.6675 1.56641 17.3046 2.01254 18.7414 2.85853C19.4193 3.2589 20.0437 3.74341 20.5999 4.30053L14.0001 10.9004L7.40027 4.30053ZM14.0001 7.59987L10.9819 4.5817C11.9248 4.13296 12.9559 3.90012 14.0001 3.90012C15.0443 3.90012 16.0754 4.13296 17.0183 4.5817L14.0001 7.59987Z" fill="black" fill-opacity="0.6"/>
<path d="M2.33338 14.7682C2.33163 13.0336 2.71747 11.3205 3.4627 9.75415C4.20793 8.1878 5.29372 6.80774 6.64071 5.71484L8.30088 7.37618C6.75801 8.56584 5.6261 10.2085 5.06384 12.0739C4.50158 13.9392 4.53715 15.9338 5.16556 17.7779C5.79398 19.6221 6.98374 21.2233 8.56805 22.3572C10.1524 23.4911 12.0518 24.1008 14 24.1008C15.9483 24.1008 17.8477 23.4911 19.432 22.3572C21.0164 21.2233 22.2061 19.6221 22.8345 17.7779C23.4629 15.9338 23.4985 13.9392 22.9363 12.0739C22.374 10.2085 21.2421 8.56584 19.6992 7.37618L21.3594 5.71484C22.7064 6.80774 23.7922 8.1878 24.5374 9.75415C25.2826 11.3205 25.6685 13.0336 25.6667 14.7682C25.6667 21.2105 20.4435 26.4348 14 26.4348C7.55655 26.4348 2.33338 21.2105 2.33338 14.7682Z" fill="black" fill-opacity="0.6"/>
</svg>
